PathFileType	4	(X/Y/Z)	D:\TRACE\v60_Jaco2_6-2-23\BothDRS_Motion1_7-platform.trc
DataRate	CameraRate	NumFrames	NumMarkers	Units	OrigDataRate	OrigDataStartFrame	OrigNumFrames
100.00	100.00	      24	5	mm	100.00	6563	      7500
Frame#	Time	Left_Front			Right_Front			Left_Aft			Right_Aft			Post			
		X1	Y1	Z1	X2	Y2	Z2	X3	Y3	Z3	X4	Y4	Z4	X5	Y5	Z5	

6563	65.620	-750.44464	32.33595	-633.16760	819.60376	33.84498	-638.30835	-658.53375	-8.97644	500.99515	783.81238	-9.76311	510.59784	36.23631	1341.90344	-909.53986	
6564	65.630	-750.49548	32.37532	-633.06195	819.60443	33.83945	-638.19257	-658.57318	-9.16460	501.08524	783.82635	-9.87273	510.72751	36.16884	1342.18591	-909.53607	
6565	65.640	-750.51392	32.38779	-632.98932	819.78833	33.78109	-638.05145	-658.55615	-9.38720	501.26172	783.69922	-10.08057	510.66473	35.98228	1342.56299	-909.37738	
6566	65.650	-750.58844	32.58330	-632.94049	819.41351	34.06530	-638.12848	-658.60559	-9.34505	501.13351	783.38708	-10.42381	510.77875	35.96772	1342.82507	-909.22278	
6567	65.660	-750.30334	33.17329	-632.89612	819.54999	34.45880	-638.02173	-658.46442	-9.67237	501.35733	783.46661	-10.61641	510.83902	35.96388	1343.23987	-908.97040	
6568	65.670	-750.24927	33.75597	-632.93994	819.51251	34.58738	-637.96899	-658.43024	-9.83510	501.42944	783.43243	-10.81028	510.85190	35.73182	1343.74927	-908.36621	
6569	65.680	-750.25702	33.96396	-632.85034	819.54913	34.87215	-637.89044	-658.00214	-10.50597	501.89127	783.50116	-10.96713	510.86771	36.02258	1344.23511	-907.67419	
6570	65.690	-750.29907	33.95637	-632.81653	819.63599	35.07503	-637.67224	-658.43671	-9.95073	501.64304	783.46252	-11.17270	510.98227	36.15003	1344.54248	-906.95404	
6571	65.700	-750.44281	34.01501	-632.79120	819.59302	35.33558	-637.53931	-658.54358	-10.05749	501.67059	783.51581	-11.26770	510.93094	35.81767	1344.53052	-905.90277	
6572	65.710	-750.46228	34.19030	-632.79376	819.50244	35.41584	-637.51605	-658.59467	-10.22981	501.89703	783.31683	-11.52573	511.00272	35.63481	1344.70471	-905.03687	
6573	65.720	-750.40082	34.43316	-632.71332	819.49323	35.59272	-637.52112	-658.66528	-10.44325	502.26926	783.29803	-11.62117	511.06155	35.40512	1344.81433	-904.41943	
6574	65.730	-750.54517	34.69534	-632.63397	819.48737	35.84477	-637.48419	-658.78857	-10.21048	501.74988	783.20795	-11.65383	511.12784	35.50127	1344.92310	-903.87915	
6575	65.740	-750.61102	34.78873	-632.51617	819.48572	36.07862	-637.47827	-658.91608	-10.21221	501.77753	783.22406	-11.69580	511.18613	35.36034	1345.21143	-903.69745	
6576	65.750	-750.74402	34.83010	-632.59503	819.36096	36.17614	-637.49445	-659.05835	-10.47250	501.73831	783.15570	-11.75614	511.24561	34.98470	1345.50085	-903.75439	
6577	65.760	-750.75018	34.90417	-632.54669	819.30035	36.30210	-637.50793	-659.08954	-10.64910	501.73178	782.91626	-11.88244	511.27612	34.98478	1345.69556	-904.03082	
6578	65.770	-750.74225	35.15700	-632.53632	819.23016	36.48131	-637.55518	-659.04816	-10.86770	501.75766	783.07733	-12.10408	511.32562	35.18994	1345.98083	-904.36096	
6579	65.780	-750.73193	35.42129	-632.45648	819.27423	36.67673	-637.53809	-658.95129	-11.00246	501.81787	782.99561	-12.18439	511.35248	35.14069	1346.38745	-904.42462	
6580	65.790	-750.75177	35.55944	-632.43396	819.20239	36.76308	-637.54602	-658.89233	-11.15452	501.93338	783.18756	-12.38951	511.37454	35.14723	1346.65967	-904.26697	
6581	65.800	-750.86591	35.77487	-632.42291	819.09137	36.83733	-637.52820	-658.88751	-11.34059	501.98547	783.23743	-12.45350	511.43549	35.11042	1346.88477	-904.07202	
6582	65.810	-750.94312	35.95243	-632.38513	819.01605	37.05162	-637.50385	-658.98114	-11.51353	501.96387	783.29242	-12.54820	511.49384	35.32957	1347.09631	-903.41711	
6583	65.820	-750.94232	36.11261	-632.37622	818.94611	37.21340	-637.39844	-659.06696	-11.68307	502.02090	783.19904	-12.67160	511.61472	35.44625	1347.12939	-902.58636	
6584	65.830	-750.93042	36.30063	-632.32996	818.92029	37.29705	-637.34778	-659.13312	-11.75423	502.04904	783.24792	-12.77247	511.68796	35.03350	1347.35229	-901.66003	
6585	65.840	-750.91956	36.41450	-632.30524	818.83344	37.38996	-637.35156	-659.11322	-11.75981	502.06088	783.15869	-12.84534	511.66565	35.21088	1347.52832	-900.67261	
6586	65.850	-751.02289	36.63775	-632.20898	818.72595	37.49324	-637.33966	-659.16797	-11.79294	502.08466	783.21521	-12.87173	511.69208	35.01978	1347.64075	-899.73706	
